<?xml version="1.0" encoding="UTF-8" standalone="no"?>
<svg
   id="svg"
   version="1.1"
   width="400"
   height="400"
   viewBox="0 0 400 400"
   sodipodi:docname="tc-tiefenbach-logo-without-text-white.svg"
   inkscape:version="1.4.3 (0d15f75, 2025-12-25)"
   xmlns:inkscape="http://www.inkscape.org/namespaces/inkscape"
   xmlns:sodipodi="http://sodipodi.sourceforge.net/DTD/sodipodi-0.dtd"
   xmlns="http://www.w3.org/2000/svg"
   xmlns:svg="http://www.w3.org/2000/svg">
  <defs
     id="defs1" />
  <sodipodi:namedview
     id="namedview1"
     pagecolor="#ffffff"
     bordercolor="#000000"
     borderopacity="0.25"
     inkscape:showpageshadow="2"
     inkscape:pageopacity="0.0"
     inkscape:pagecheckerboard="0"
     inkscape:deskcolor="#d1d1d1"
     inkscape:zoom="2.8284271"
     inkscape:cx="175.89281"
     inkscape:cy="254.02811"
     inkscape:window-width="1920"
     inkscape:window-height="991"
     inkscape:window-x="-9"
     inkscape:window-y="-9"
     inkscape:window-maximized="1"
     inkscape:current-layer="svg" />
  <g
     id="svgg">
    <path
       id="path0"
       d="M196.286 0.166 C 59.183 6.339,-32.976 142.843,12.663 272.143 C 14.964 278.661,19.410 288.930,22.374 294.571 C 30.133 309.340,38.329 321.617,48.625 333.892 C 49.696 335.169,50.571 336.336,50.571 336.487 C 50.571 336.847,53.833 340.036,55.286 341.096 C 55.914 341.554,57.907 343.446,59.714 345.299 C 68.615 354.428,79.595 363.420,84.143 365.304 C 85.729 365.961,91.041 369.322,93.342 371.125 C 94.159 371.765,95.168 372.418,95.585 372.577 C 96.002 372.735,97.006 373.297,97.815 373.825 C 101.941 376.519,110.437 380.690,113.203 381.381 C 113.943 381.566,116.257 382.500,118.346 383.457 C 145.345 395.833,164.438 400.001,194.129 400.000 C 229.438 399.998,258.409 394.043,284.571 381.410 C 292.927 377.375,294.352 376.620,299.835 373.316 C 302.676 371.604,305.662 369.868,306.471 369.459 C 307.281 369.049,308.706 368.040,309.639 367.215 C 310.572 366.390,312.382 364.976,313.660 364.072 C 321.057 358.841,328.846 352.297,336.857 344.581 C 340.236 341.328,344.173 337.557,345.607 336.202 C 347.041 334.847,348.154 333.678,348.081 333.605 C 348.008 333.531,349.512 331.565,351.425 329.236 C 358.890 320.141,361.651 316.116,371.778 299.571 C 383.921 279.731,393.293 253.658,396.861 229.792 C 409.991 141.971,367.891 59.311,290.295 20.556 C 261.467 6.159,227.382 -1.234,196.286 0.166 M220.286 10.576 C 231.989 11.426,238.110 12.457,251.857 15.890 C 266.301 19.497,275.898 22.964,286.000 28.221 C 295.730 33.284,305.651 39.067,308.003 41.047 C 308.464 41.435,309.842 42.403,311.064 43.199 C 312.286 43.995,313.677 44.983,314.156 45.395 C 314.635 45.806,315.393 46.400,315.841 46.714 C 319.248 49.105,328.353 57.140,334.407 63.098 C 366.059 94.249,383.759 132.836,388.621 181.286 C 389.123 186.282,389.131 207.421,388.633 212.286 C 386.712 231.056,384.678 240.089,377.662 261.000 C 373.838 272.396,368.891 283.788,365.377 289.286 C 364.260 291.034,360.269 297.836,358.693 300.677 C 355.066 307.219,353.423 307.732,337.905 307.176 C 332.693 306.989,324.121 306.711,318.857 306.559 C 313.593 306.407,307.743 306.151,305.857 305.991 C 291.850 304.804,269.150 303.725,258.143 303.723 C 230.967 303.720,215.946 306.604,191.366 316.544 C 188.650 317.642,182.700 320.020,178.143 321.828 C 173.586 323.637,168.764 325.587,167.429 326.162 C 159.294 329.664,152.561 332.709,147.429 335.207 C 144.207 336.775,139.514 339.030,137.000 340.218 C 134.486 341.406,129.214 343.982,125.286 345.943 C 121.357 347.904,116.214 350.427,113.857 351.549 C 111.500 352.672,107.960 354.448,105.991 355.498 C 95.777 360.940,95.170 360.753,78.627 347.053 C 30.497 307.191,5.524 239.714,15.427 176.286 C 15.733 174.321,16.125 171.621,16.296 170.286 C 16.695 167.183,17.532 163.302,18.393 160.571 C 18.764 159.393,19.218 157.593,19.401 156.571 C 19.729 154.735,23.028 144.147,24.564 140.000 C 25.000 138.821,25.710 136.764,26.141 135.429 C 26.573 134.093,28.068 130.414,29.464 127.253 C 31.737 122.107,33.129 119.268,37.718 110.429 C 39.620 106.764,47.442 94.074,48.636 92.714 C 49.189 92.086,50.051 90.864,50.552 90.000 C 51.053 89.136,52.388 87.252,53.517 85.815 C 54.647 84.378,56.811 81.607,58.326 79.659 C 59.842 77.710,63.048 74.065,65.451 71.558 C 67.854 69.051,70.150 66.617,70.553 66.148 C 71.559 64.980,72.798 63.755,74.148 62.594 C 74.774 62.057,75.993 60.962,76.857 60.162 C 77.721 59.362,78.943 58.297,79.571 57.795 C 80.200 57.294,83.157 54.927,86.143 52.536 C 97.631 43.336,104.181 38.855,111.878 34.931 C 113.752 33.975,116.121 32.718,117.143 32.137 C 118.164 31.557,120.671 30.277,122.714 29.294 C 126.291 27.572,127.692 26.914,131.714 25.066 C 139.157 21.647,159.208 15.384,167.143 14.000 C 168.164 13.822,169.514 13.556,170.143 13.410 C 181.925 10.662,204.173 9.404,220.286 10.576 M282.361 48.440 C 272.746 50.198,255.898 57.392,249.422 62.507 C 248.083 63.564,246.218 64.939,245.279 65.562 C 243.564 66.698,240.313 69.464,236.857 72.727 C 234.544 74.911,232.841 76.404,231.000 77.864 C 230.214 78.487,229.250 79.271,228.857 79.606 C 228.464 79.942,226.536 81.543,224.571 83.164 C 220.928 86.171,216.009 90.945,210.413 96.901 C 208.693 98.732,205.956 101.294,204.330 102.594 C 202.705 103.893,200.519 105.931,199.473 107.121 C 196.152 110.900,187.376 119.502,184.876 121.429 C 181.360 124.138,179.630 125.745,177.237 128.524 C 174.603 131.581,173.171 132.892,169.769 135.358 C 162.738 140.454,160.758 142.030,157.698 144.970 C 154.369 148.169,152.602 149.438,142.571 155.830 C 136.306 159.823,134.343 160.974,130.362 162.991 C 124.323 166.050,114.149 170.526,109.286 172.263 C 107.871 172.768,106.457 173.294,106.143 173.432 C 103.870 174.431,94.616 177.015,89.293 178.138 C 67.113 182.817,48.500 180.465,34.509 171.215 C 29.444 167.867,27.714 167.439,27.714 169.536 C 27.714 177.064,36.339 187.774,45.251 191.312 C 67.465 200.132,104.423 192.109,140.172 170.708 C 150.271 164.662,164.821 154.443,171.344 148.815 C 172.319 147.974,176.048 144.787,179.630 141.733 C 185.583 136.659,192.811 130.173,198.286 124.995 C 199.464 123.880,201.714 121.759,203.286 120.282 C 204.857 118.804,207.557 116.227,209.286 114.554 C 211.014 112.882,214.486 109.598,217.000 107.257 C 219.514 104.915,223.564 101.059,226.000 98.687 C 228.436 96.315,231.200 93.682,232.143 92.836 C 234.445 90.770,237.516 87.906,241.145 84.439 C 250.644 75.366,255.885 71.039,266.143 63.804 C 271.643 59.924,281.091 54.555,285.856 52.601 C 289.202 51.229,290.353 50.481,291.294 49.071 L 292.008 48.000 288.218 48.031 C 286.134 48.048,283.498 48.232,282.361 48.440 M327.857 106.917 C 324.817 108.220,322.319 110.533,320.886 113.371 C 319.746 115.629,318.529 116.773,314.761 119.128 C 313.007 120.225,311.186 121.383,310.714 121.702 C 309.787 122.330,307.885 122.444,305.341 122.026 C 302.478 121.555,301.424 122.366,300.870 125.468 C 300.437 127.892,300.120 128.270,297.143 129.920 C 292.818 132.317,281.299 140.069,274.591 145.096 C 255.613 159.321,252.252 166.311,259.777 175.910 C 263.116 180.169,271.985 186.571,274.546 186.571 C 278.177 186.571,277.588 183.471,273.286 179.933 C 266.080 174.007,264.955 170.037,268.804 164.131 C 272.758 158.065,287.129 146.324,297.757 140.478 L 299.657 139.433 299.820 142.931 C 299.910 144.854,300.056 151.121,300.145 156.857 C 300.377 171.877,300.784 184.919,301.177 189.874 C 301.621 195.478,301.597 195.560,299.379 196.213 C 298.210 196.558,297.435 196.980,297.067 197.473 C 295.302 199.837,296.294 210.522,299.021 218.513 C 301.379 225.424,301.305 225.335,304.489 225.060 C 311.744 224.433,312.698 222.906,311.563 213.737 C 309.237 194.950,308.011 173.125,307.956 149.532 C 307.917 132.871,307.552 134.614,311.565 132.286 C 317.339 128.936,329.362 121.440,332.884 118.995 C 338.324 115.217,338.530 114.212,334.842 109.455 C 332.323 106.204,330.806 105.653,327.857 106.917 M207.000 171.525 C 206.529 171.743,205.502 172.453,204.720 173.103 C 203.032 174.505,201.850 174.628,198.857 173.714 C 192.163 171.670,187.614 174.747,182.382 184.857 C 170.155 208.483,166.384 247.080,174.384 266.704 C 176.790 272.605,180.069 274.933,186.714 275.458 C 188.443 275.595,191.738 275.856,194.037 276.040 C 198.970 276.433,200.356 276.289,202.844 275.124 C 210.781 271.410,219.552 261.601,229.120 245.739 C 234.138 237.420,234.289 235.156,230.141 230.346 C 225.748 225.251,224.030 225.580,223.702 231.578 L 223.527 234.785 221.298 239.178 C 205.374 270.562,188.866 279.077,183.191 258.835 C 181.308 252.116,180.547 236.197,181.656 226.714 C 185.076 197.475,192.023 181.409,201.579 180.642 C 205.615 180.318,206.626 181.870,207.303 189.429 C 207.811 195.105,207.690 197.448,206.685 201.422 C 205.295 206.917,205.730 208.000,209.327 208.000 C 213.936 208.000,215.827 206.939,216.819 203.798 C 218.905 197.191,218.632 178.168,216.396 174.239 C 215.153 172.055,209.431 170.403,207.000 171.525 M350.429 184.686 C 347.023 185.523,347.094 185.341,347.015 193.352 C 346.970 197.926,346.822 200.634,346.562 201.649 C 345.878 204.309,346.948 204.576,351.517 202.884 C 355.522 201.400,356.109 200.418,356.704 194.205 C 357.572 185.141,356.317 183.238,350.429 184.686 M126.417 204.245 C 124.009 205.385,121.448 207.841,120.198 210.210 C 118.624 213.196,117.062 214.496,110.381 218.383 L 108.047 219.741 105.723 219.270 C 101.632 218.441,100.916 218.891,99.879 222.941 L 99.286 225.261 97.000 226.618 C 95.743 227.364,94.329 228.192,93.857 228.458 C 85.536 233.154,65.048 248.490,60.420 253.487 C 51.873 262.714,53.903 271.333,66.653 279.948 C 72.309 283.770,73.482 284.221,75.170 283.224 C 77.251 281.995,76.375 280.290,71.643 276.356 C 64.095 270.083,63.901 265.534,70.836 257.476 C 74.609 253.092,88.286 242.583,96.513 237.746 C 99.207 236.162,99.042 235.215,99.283 253.714 C 99.465 267.679,99.879 281.611,100.301 287.976 C 100.629 292.923,100.749 292.586,98.415 293.272 C 94.035 294.560,94.069 303.102,98.506 316.360 C 100.589 322.587,100.548 322.548,104.502 322.051 C 111.233 321.206,111.796 319.959,110.471 308.842 C 107.968 287.842,106.574 260.808,106.991 241.324 C 107.208 231.146,107.187 231.252,109.238 230.186 C 110.050 229.764,111.293 229.055,112.000 228.610 C 112.707 228.164,117.400 225.261,122.429 222.158 C 138.483 212.250,138.350 212.434,133.822 206.363 C 131.449 203.182,129.714 202.686,126.417 204.245 M245.150 235.426 C 242.293 236.242,242.384 235.968,242.209 244.343 C 242.126 248.319,241.920 252.006,241.753 252.536 C 241.019 254.858,242.972 255.175,247.143 253.412 C 251.231 251.683,251.970 249.852,251.990 241.400 C 252.006 234.706,250.938 233.773,245.150 235.426 M150.968 281.426 C 146.008 282.460,146.168 282.164,146.111 290.389 C 146.082 294.640,145.932 297.631,145.694 298.695 C 145.075 301.461,146.050 301.727,150.512 300.006 C 155.000 298.275,156.028 295.942,155.988 287.579 C 155.960 281.922,154.889 280.609,150.968 281.426 M349.297 315.447 C 349.900 316.422,349.056 317.892,346.331 320.618 C 344.813 322.137,342.286 324.688,340.714 326.288 C 336.763 330.310,335.053 331.849,333.027 333.205 C 332.069 333.846,330.000 335.622,328.429 337.150 C 326.857 338.678,323.514 341.645,321.000 343.741 C 318.486 345.838,316.171 347.797,315.857 348.094 C 313.731 350.103,301.383 358.909,297.286 361.339 C 296.971 361.525,295.295 362.571,293.560 363.663 C 287.055 367.757,272.038 374.528,260.919 378.381 C 217.188 393.533,168.542 392.123,125.593 374.459 C 122.305 373.106,119.382 372.000,119.096 372.000 C 118.811 372.000,116.680 371.089,114.360 369.976 C 109.513 367.650,109.553 367.876,113.677 366.053 C 114.856 365.532,116.160 364.864,116.576 364.568 C 117.410 363.974,122.262 361.143,122.446 361.143 C 122.509 361.143,123.431 360.610,124.495 359.959 C 125.558 359.308,127.971 358.025,129.857 357.108 C 131.743 356.191,135.101 354.500,137.320 353.349 C 139.539 352.198,142.817 350.762,144.606 350.157 C 146.394 349.552,149.593 348.290,151.714 347.352 C 158.713 344.258,160.491 343.576,165.286 342.139 C 166.700 341.715,169.271 340.720,171.000 339.928 C 172.729 339.136,176.586 337.684,179.571 336.702 C 182.557 335.720,187.057 334.146,189.571 333.205 C 194.925 331.201,197.057 330.592,202.286 329.568 C 204.407 329.153,208.714 328.174,211.857 327.394 C 217.447 326.005,221.703 325.119,225.429 324.568 C 226.450 324.417,228.571 324.097,230.143 323.857 C 236.627 322.866,249.022 321.429,253.429 321.158 C 260.519 320.722,268.293 320.309,275.143 320.005 C 283.167 319.649,292.874 318.945,294.868 318.575 C 295.739 318.413,299.853 318.155,304.011 318.002 C 308.169 317.849,312.214 317.657,313.000 317.575 C 313.786 317.493,316.100 317.301,318.143 317.149 C 320.186 316.996,323.979 316.678,326.571 316.442 C 337.016 315.490,338.252 315.395,341.000 315.330 C 342.571 315.293,345.039 315.236,346.483 315.203 C 348.096 315.166,349.182 315.260,349.297 315.447 "
       stroke="none"
       fill="#060505"
       fill-rule="evenodd" />
    <path
       id="path1"
       d="m 196.429,10.282 c -7.591,0.291 -20.933,1.879 -26.286,3.128 -0.629,0.146 -1.979,0.412 -3,0.59 -7.935,1.384 -27.986,7.647 -35.429,11.066 -4.022,1.848 -5.423,2.506 -9,4.228 -2.043,0.983 -4.55,2.263 -5.571,2.843 -1.022,0.581 -3.391,1.838 -5.265,2.794 -7.697,3.924 -14.247,8.405 -25.735,17.605 -2.986,2.391 -5.943,4.758 -6.572,5.259 -0.628,0.502 -1.85,1.567 -2.714,2.367 -0.864,0.8 -2.083,1.895 -2.709,2.432 -1.35,1.161 -2.589,2.386 -3.595,3.554 -0.403,0.469 -2.699,2.903 -5.102,5.41 -2.403,2.507 -5.609,6.152 -7.125,8.101 -1.515,1.948 -3.679,4.719 -4.809,6.156 -1.129,1.437 -2.464,3.321 -2.965,4.185 -0.501,0.864 -1.363,2.086 -1.916,2.714 -1.194,1.36 -9.016,14.05 -10.918,17.715 -4.589,8.839 -5.981,11.678 -8.254,16.824 -1.396,3.161 -2.891,6.84 -3.323,8.176 -0.431,1.335 -1.141,3.392 -1.577,4.571 -1.415,3.82 -4.821,14.665 -5.184,16.502 l -0.352,1.788 1.159,1.212 c 0.637,0.667 1.768,2.081 2.513,3.143 0.823,1.175 2.07,2.462 3.184,3.286 1.076,0.797 1.83,1.568 1.83,1.872 0,0.284 0.119,0.443 0.265,0.353 0.53,-0.328 3.539,1.082 6.53,3.059 13.991,9.25 32.604,11.602 54.784,6.923 5.323,-1.123 14.577,-3.707 16.85,-4.706 0.314,-0.138 1.728,-0.664 3.143,-1.169 4.863,-1.737 15.037,-6.213 21.076,-9.272 3.981,-2.017 5.944,-3.168 12.209,-7.161 10.031,-6.392 11.798,-7.661 15.127,-10.86 3.06,-2.94 5.04,-4.516 12.071,-9.612 3.402,-2.466 4.834,-3.777 7.468,-6.834 2.393,-2.779 4.123,-4.386 7.639,-7.095 2.5,-1.927 11.276,-10.529 14.597,-14.308 1.046,-1.19 3.232,-3.228 4.857,-4.527 1.626,-1.3 4.363,-3.862 6.083,-5.693 5.596,-5.956 10.515,-10.73 14.158,-13.737 1.965,-1.621 3.893,-3.222 4.286,-3.558 0.393,-0.335 1.357,-1.119 2.143,-1.742 1.841,-1.46 3.544,-2.953 5.857,-5.137 3.456,-3.263 6.707,-6.029 8.422,-7.165 0.939,-0.623 2.804,-1.998 4.143,-3.055 8.989,-7.099 28.996,-14.506 39.186,-14.507 2.962,0 3.676,-0.082 3.988,-0.458 1.442,-1.738 12.791,-2.218 19.816,-0.839 4.493,0.882 4.483,0.881 3.459,0.083 -0.454,-0.354 -1.221,-0.98 -1.705,-1.391 -0.484,-0.412 -1.88,-1.4 -3.102,-2.196 -1.222,-0.796 -2.6,-1.764 -3.061,-2.152 C 305.651,39.067 295.73,33.284 286,28.221 274.688,22.334 263.189,18.409 244.857,14.177 230.544,10.873 214.542,9.586 196.429,10.282 M 341,315.33 c -2.748,0.065 -3.984,0.16 -14.429,1.112 -2.592,0.236 -6.385,0.554 -8.428,0.707 -2.043,0.152 -4.357,0.344 -5.143,0.426 -0.786,0.082 -4.831,0.274 -8.989,0.427 -4.158,0.153 -8.272,0.411 -9.143,0.573 -1.994,0.37 -11.701,1.074 -19.725,1.43 -6.85,0.304 -14.624,0.717 -21.714,1.153 -4.407,0.271 -16.802,1.708 -23.286,2.699 -1.572,0.24 -3.693,0.56 -4.714,0.711 -3.726,0.551 -7.982,1.437 -13.572,2.826 -3.143,0.78 -7.45,1.759 -9.571,2.174 -5.229,1.024 -7.361,1.633 -12.715,3.637 -2.514,0.941 -7.014,2.515 -10,3.497 -2.985,0.982 -6.842,2.434 -8.571,3.226 -1.729,0.792 -4.3,1.787 -5.714,2.211 -4.795,1.437 -6.573,2.119 -13.572,5.213 -2.121,0.938 -5.32,2.2 -7.108,2.805 -1.789,0.605 -5.067,2.041 -7.286,3.192 -2.219,1.151 -5.577,2.842 -7.463,3.759 -1.886,0.917 -4.299,2.2 -5.362,2.851 -1.064,0.651 -1.986,1.184 -2.049,1.184 -0.184,0 -5.036,2.831 -5.87,3.425 -0.416,0.296 -1.72,0.964 -2.899,1.485 -4.124,1.823 -4.164,1.597 0.683,3.923 2.32,1.113 4.451,2.024 4.736,2.024 0.286,0 3.209,1.106 6.497,2.459 42.949,17.664 91.595,19.074 135.326,3.922 11.119,-3.853 26.136,-10.624 32.641,-14.718 1.735,-1.092 3.411,-2.138 3.726,-2.324 4.097,-2.43 16.445,-11.236 18.571,-13.245 0.314,-0.297 2.629,-2.256 5.143,-4.353 2.514,-2.096 5.857,-5.063 7.429,-6.591 1.571,-1.528 3.64,-3.304 4.598,-3.945 2.026,-1.356 3.736,-2.895 7.687,-6.917 1.572,-1.6 4.099,-4.151 5.617,-5.67 2.173,-2.173 2.802,-2.985 2.957,-3.814 0.294,-1.568 0.119,-1.668 -2.805,-1.601 -1.444,0.033 -3.912,0.09 -5.483,0.127"
       stroke="none"
       fill="#fb0404"
       fill-rule="evenodd"
       sodipodi:nodetypes="cccccccccsccsccsccccccccccscccsccccccccccccccccccsccscccccccssccscsccscscccsscscccsccsccccccccsc" />
  </g>
  <path
     style="fill:#ffffff;fill-rule:evenodd;stroke-width:0.353553"
     d="M 93.338096,357.68302 C 86.413813,354.34801 66.391741,336.4835 57.405701,325.62268 47.479535,313.62558 40.353422,302.67623 33.590203,289.0299 22.396356,266.44377 15.77874,242.23283 13.942992,217.14942 c -0.484542,-6.62072 -0.264517,-25.54504 0.358411,-30.82678 1.071259,-9.0831 2.6293,-19.0145 3.619042,-23.06881 1.261423,-5.1672 0.993935,-5.09229 4.133949,-1.15776 1.767171,2.21431 3.40404,3.87309 4.928309,4.99426 0.353707,0.26017 0.570847,1.17664 0.65258,2.75432 0.258078,4.98166 2.778787,9.65942 8.040062,14.92023 4.832363,4.83193 8.565159,6.90592 15.41312,8.56375 4.833178,1.17007 8.619572,1.56374 15.02602,1.56225 25.640615,-0.006 55.675135,-11.08164 86.267025,-31.81227 18.1782,-12.31847 31.15773,-23.54276 68.58936,-59.31395 22.16822,-21.184847 30.97008,-29.13305 38.77195,-35.011602 9.05953,-6.826176 18.73712,-12.730036 25.85431,-15.772548 3.01908,-1.290618 3.94497,-1.888223 5.74681,-3.709198 1.89413,-1.91425 2.396,-2.224143 4.24796,-2.623009 3.24325,-0.69852 11.27491,-0.600945 16.55623,0.201139 l 4.55667,0.692031 3.92861,3.337053 c 7.98607,6.78356 18.26315,16.825378 23.91516,23.367687 21.69518,25.112565 35.35876,54.672957 41.50907,89.802557 2.1588,12.33065 2.40003,15.16739 2.57589,30.29107 0.17851,15.35095 -0.0865,19.77692 -1.86401,31.12943 -2.6741,17.07911 -10.68887,42.2998 -18.17625,57.19667 -2.66444,5.30118 -10.65688,19.14363 -12.28803,21.28218 -1.17623,1.54212 -3.47637,2.58016 -6.65982,3.00555 -3.33077,0.44507 -33.6007,-0.4836 -48.06438,-1.47461 -19.85037,-1.36008 -26.05761,-1.59059 -42.95673,-1.59522 -18.11057,-0.005 -21.50006,0.18593 -31.28948,1.76221 -12.24691,1.97198 -21.48647,4.89504 -44.33179,14.02496 -22.74286,9.08897 -31.02607,12.86942 -65.7684,30.01665 -16.80984,8.29657 -17.557134,8.62624 -19.798988,8.73439 -1.889368,0.0911 -2.663968,-0.0486 -4.097556,-0.73903 z m 14.196344,-36.00085 c 0.80763,-0.20288 1.90211,-0.82153 2.43216,-1.37479 1.4041,-1.46557 1.47572,-4.12553 0.38996,-14.48369 -1.23639,-11.79512 -1.5512,-15.4384 -2.16903,-25.1023 -1.25218,-19.58622 -1.346,-48.13739 -0.162,-49.30194 0.28345,-0.2788 2.58365,-1.76049 5.11156,-3.29267 12.50169,-7.57732 19.96196,-12.42792 21.70471,-14.11221 1.79497,-1.73476 1.8932,-1.91892 1.69034,-3.169 -0.25431,-1.56713 -2.23123,-4.5607 -4.16638,-6.309 -1.12465,-1.01605 -1.65426,-1.24337 -2.89682,-1.24337 -3.17272,0 -6.84642,2.75693 -9.88684,7.41959 -1.6548,2.53772 -3.25428,3.86395 -8.2457,6.83704 -3.23244,1.92537 -3.41873,1.98917 -4.84635,1.65967 -0.81658,-0.18846 -2.22887,-0.34655 -3.13841,-0.3513 -2.05944,-0.0108 -2.77516,0.77801 -3.654876,4.02795 l -0.615989,2.27565 -4.108774,2.39887 c -10.199846,5.95507 -28.143095,19.26709 -33.984041,25.21262 -5.686252,5.78806 -7.245942,11.22695 -4.758881,16.59501 1.051754,2.27011 1.685901,3.11198 4.508859,5.98581 2.345162,2.38743 8.424453,6.72452 11.05967,7.8902 1.898398,0.83976 3.454782,0.63358 4.237744,-0.56137 0.794,-1.2118 0.153686,-2.43191 -2.587452,-4.93039 -5.624929,-5.12698 -7.498677,-7.71406 -7.506738,-10.36453 -0.01033,-3.39722 3.568506,-8.77682 9.005606,-13.53693 6.362547,-5.57035 21.727734,-16.61676 23.113345,-16.61676 0.180319,0 0.426763,0.39409 0.547654,0.87576 0.12089,0.48167 0.374056,8.87414 0.562588,18.64994 0.188536,9.7758 0.520289,21.63585 0.737233,26.35567 0.216952,4.71983 0.309982,8.80162 0.206742,9.07066 -0.10325,0.26905 -0.676282,0.59648 -1.273416,0.72763 -2.383406,0.52349 -3.911828,3.35411 -3.911828,7.24466 0,5.40579 3.799631,19.71772 5.753534,21.67162 0.61232,0.61231 0.98947,0.66934 3.0412,0.45988 1.28821,-0.13152 3.00299,-0.40511 3.81062,-0.60798 z m 43.82975,-21.88958 c 3.91522,-1.86856 4.87804,-4.38553 4.66895,-12.20534 -0.10091,-3.7742 -0.21452,-4.47228 -0.86885,-5.33874 -0.69245,-0.91693 -0.9332,-0.99459 -3.0052,-0.96934 -1.23885,0.0151 -2.85471,0.22817 -3.5908,0.47349 -2.3545,0.78472 -2.46414,1.2059 -2.7536,10.57807 -0.14213,4.60154 -0.17342,8.5045 -0.0695,8.67326 0.33327,0.54144 3.27528,-0.0928 5.61904,-1.2114 z m 52.31902,-24.91175 c 6.56772,-3.3336 13.88732,-11.01815 21.50482,-22.57708 9.30906,-14.12572 9.81205,-16.50755 4.75302,-22.50725 -2.49611,-2.96025 -4.80819,-3.96253 -5.62408,-2.43802 -0.2151,0.40191 -0.54805,2.27133 -0.73988,4.15425 -0.33182,3.25686 -0.46865,3.65448 -2.81126,8.16911 -7.73789,14.91231 -15.35855,24.61234 -22.2018,28.25975 -5.29207,2.82064 -9.22057,1.92779 -12.38801,-2.81548 -2.71677,-4.0684 -4.02145,-10.0504 -4.65469,-21.34182 -0.41107,-7.32987 -0.2113,-12.61742 0.76555,-20.26325 3.49364,-27.34477 10.64639,-42.57479 20.03561,-42.66092 1.66396,-0.0153 2.02476,0.11044 2.75636,0.96034 1.01161,1.1752 1.49561,2.85198 1.94083,6.72383 0.50384,4.38174 0.40811,8.46082 -0.26974,11.49344 -0.33502,1.49882 -0.61344,3.75373 -0.61872,5.01091 -0.009,2.08092 0.0696,2.32824 0.87429,2.75938 0.60654,0.32498 1.69343,0.42021 3.46384,0.30348 6.60684,-0.43562 7.62394,-2.86104 7.65449,-18.25334 0.0202,-10.16016 -0.35389,-13.61719 -1.69213,-15.63822 -1.10532,-1.66928 -3.77554,-2.87888 -6.72515,-3.04649 -2.3639,-0.13432 -2.47791,-0.10084 -4.49053,1.31849 -2.35213,1.65877 -3.20019,1.76784 -6.93903,0.89239 -6.50457,-1.52305 -10.6941,1.34787 -15.78522,10.81698 -5.75116,10.69675 -10.16493,26.76808 -11.94312,43.48707 -0.56496,5.31188 -0.56033,19.0172 0.008,23.5113 1.48525,11.7459 4.39603,19.4103 8.37173,22.0437 2.44914,1.62224 4.62842,2.14919 11.17994,2.70334 8.25893,0.69857 10.43539,0.52768 13.57494,-1.06589 z m 44.07747,-21.56547 c 3.52433,-1.67273 4.24699,-3.51693 4.29256,-10.95452 0.0347,-5.6572 -0.31135,-6.98966 -1.96477,-7.56604 -1.82457,-0.63605 -6.75174,0.56958 -7.41838,1.81521 -0.22183,0.4145 -0.51773,4.01205 -0.68066,8.27555 -0.15852,4.14825 -0.38872,7.70489 -0.51155,7.90363 -0.12283,0.19875 -0.11627,0.69867 0.0146,1.11093 0.21519,0.67799 0.42839,0.73212 2.23253,0.56678 1.09705,-0.10053 2.91311,-0.61873 4.0357,-1.15154 z m 61.51401,-29.0887 c 1.03643,-0.45846 1.82656,-1.10812 2.18075,-1.79304 0.70846,-1.37003 0.71946,-5.13184 0.0322,-11.0087 -2.22749,-19.04692 -3.55154,-45.52742 -3.30838,-66.16636 0.10872,-9.2276 0.17698,-10.1918 0.76774,-10.84403 0.35662,-0.39373 2.58401,-1.86986 4.94975,-3.28027 12.37927,-7.38036 21.29918,-13.23141 22.68867,-14.88272 1.17235,-1.39326 1.13378,-2.9315 -0.1232,-4.91356 -2.1178,-3.33941 -4.33032,-5.27197 -6.03572,-5.27197 -1.48449,0 -4.65933,1.51202 -6.33136,3.01532 -0.9562,0.85971 -2.48708,2.72057 -3.40194,4.13525 -1.79271,2.77209 -2.88661,3.72706 -7.79532,6.80525 l -3.17888,1.99343 -3.65726,-0.10806 c -3.44654,-0.10184 -3.69495,-0.0616 -4.31136,0.69847 -0.35975,0.4436 -0.83043,1.63684 -1.04595,2.65165 -0.21552,1.01482 -0.58802,2.10541 -0.82778,2.42355 -0.23977,0.31813 -1.94309,1.49152 -3.78517,2.60752 -4.8834,2.95856 -14.15253,9.20391 -19.90604,13.41231 -10.53501,7.70582 -16.60478,13.54149 -18.88637,18.15796 -1.12284,2.27192 -1.30015,2.96993 -1.31232,5.1661 -0.0125,2.24927 0.14316,2.86026 1.36266,5.3501 2.15183,4.39335 8.3203,10.15848 14.15076,13.22547 3.02162,1.58947 5.50894,1.34077 5.50894,-0.55082 0,-1.4679 -0.59244,-2.26216 -4.58843,-6.1515 -4.38381,-4.26681 -5.44477,-5.98464 -5.45903,-8.83884 -0.0122,-2.43932 0.95148,-4.5022 3.69816,-7.91652 4.62449,-5.74857 17.69516,-16.07164 27.29734,-21.55914 l 1.67938,-0.95974 0.006,1.69429 c 0.0197,6.03121 0.74477,34.5416 1.09702,43.13328 0.31831,7.76378 0.32282,10.44747 0.0182,10.81455 -0.22286,0.26853 -1.01759,0.67171 -1.76606,0.89596 -2.27397,0.6813 -2.66206,1.40134 -2.83045,5.25139 -0.24524,5.60711 1.03125,12.70539 3.50548,19.49323 1.59419,4.37352 1.66117,4.4286 5.1258,4.21517 1.76158,-0.10852 3.4807,-0.45175 4.48271,-0.89498 z m 43.39235,-21.72274 c 1.47237,-0.74081 2.51167,-1.53579 2.89694,-2.21593 1.39488,-2.4624 2.01882,-12.46746 0.90683,-14.54124 -0.32624,-0.60841 -0.85071,-1.20503 -1.16549,-1.32582 -1.67182,-0.64154 -7.1901,0.26992 -7.82319,1.29217 -0.3358,0.54218 -1.21948,17.57819 -0.93564,18.03746 0.38267,0.61918 3.79261,-0.0754 6.12055,-1.24664 z"
     id="path2" />
</svg>
